<svg id="visual" viewBox="0 0 900 600" width="900" height="600" xmlns="http://www.w3.org/2000/svg" xmlns:xlink="http://www.w3.org/1999/xlink" version="1.1"><rect x="0" y="0" width="900" height="600" fill="#F8F7FF"></rect><path d="M0 417L16.7 426.3C33.3 435.7 66.7 454.3 100 446.2C133.3 438 166.7 403 200 395.5C233.3 388 266.7 408 300 427.2C333.3 446.3 366.7 464.7 400 465.2C433.3 465.7 466.7 448.3 500 431C533.3 413.7 566.7 396.3 600 382.5C633.3 368.7 666.7 358.3 700 354C733.3 349.7 766.7 351.3 800 357.5C833.3 363.7 866.7 374.3 883.3 379.7L900 385L900 601L883.3 601C866.7 601 833.3 601 800 601C766.7 601 733.3 601 700 601C666.7 601 633.3 601 600 601C566.7 601 533.3 601 500 601C466.7 601 433.3 601 400 601C366.7 601 333.3 601 300 601C266.7 601 233.3 601 200 601C166.7 601 133.3 601 100 601C66.7 601 33.3 601 16.7 601L0 601Z" fill="#FFD8BE" stroke-linecap="round" stroke-linejoin="miter"></path></svg>